<svg xmlns="http://www.w3.org/2000/svg" viewBox="0 0 24 24" width="24" height="24">
  <rect x="1" y="1" width="22" height="22" rx="6" fill="#A855F7"/>
  <path d="M8 7 C5.5 7 4 9 4 12 C4 15 5.5 17 8 17 C9 17 10 16.5 10.5 15.5 L9 14 C8.7 14.5 8.4 14.7 8 14.7 C7 14.7 6.4 13.6 6.4 12 C6.4 10.4 7 9.3 8 9.3 C8.4 9.3 8.7 9.5 9 10 L10.5 8.5 C10 7.5 9 7 8 7 Z M16 7 C13.5 7 12 9 12 12 C12 15 13.5 17 16 17 C17 17 18 16.5 18.5 15.5 L17 14 C16.7 14.5 16.4 14.7 16 14.7 C15 14.7 14.4 13.6 14.4 12 C14.4 10.4 15 9.3 16 9.3 C16.4 9.3 16.7 9.5 17 10 L18.5 8.5 C18 7.5 17 7 16 7 Z" fill="#ffffff"/>
</svg>
